<svg xmlns="http://www.w3.org/2000/svg" xmlns:xlink="http://www.w3.org/1999/xlink" xmlns:xodm="http://www.corel.com/coreldraw/odm/2003" xml:space="preserve" width="1200px" height="1200px" style="shape-rendering:geometricPrecision; text-rendering:geometricPrecision; image-rendering:optimizeQuality; fill-rule:evenodd; clip-rule:evenodd" viewBox="0 0 511.12 511.12"> <defs> <style type="text/css"> .fil7 {fill:none} .fil1 {fill:#00082D} .fil6 {fill:#42475B} .fil5 {fill:#74798C} .fil3 {fill:#9A0019} .fil4 {fill:#ACB3C4} .fil2 {fill:#DC0000} .fil0 {fill:white} </style> </defs> <g id="Camada_x0020_1"> <metadata id="CorelCorpID_0Corel-Layer"></metadata> <g id="_3069405781584"> <path class="fil0" d="M424.29 312.7l0.14 1.03 6.11 1.36c17.43,3.87 37.13,0.75 47.36,-14.87l0.65 -0.26 1.64 -1.05c6.44,-4.14 12.57,-10.79 16.94,-17.05 10.02,-14.36 14.5,-31.93 13.94,-49.33l-0.35 -10.62 -45.53 -29.55c0.02,-0.18 0.04,-0.36 0.05,-0.54 1.29,-14.86 -4.08,-28.59 -15.79,-38l-2.22 -16.09 -9.98 -5.89c-8.55,-5.05 -17.16,-10.02 -25.83,-14.86 -15.23,-18.48 -24.76,-36.92 -34.97,-58.16 -8.78,7.65 -16.63,13.94 -23,24.06 -15.81,-10.11 -39.08,-19.11 -52.36,-29.75 -11.14,-8.92 -15.38,-19.46 -20.79,-32.07 -8.69,9.73 -18.37,19.03 -24.94,30.72 -83.15,-21.42 -169.99,-22.5 -255.36,-25.34l51.42 81.03c-1.71,58.62 10.86,124.52 31.27,179.14 31.1,83.25 84.46,153.5 163.05,196.84l11.99 6.61 11.8 -6.94c46.66,-27.39 87.74,-64.03 119.19,-108.1 15.77,-8.33 25.15,-24.88 26.09,-42.55 3.37,-6.49 6.53,-13.08 9.48,-19.77z"></path> <path class="fil1" d="M60.42 105.02c-2.16,58.12 10.54,124.72 30.62,178.47 30.33,81.2 82.24,149.82 159,192.15l7.55 4.16 7.43 -4.36c59.4,-34.89 109.31,-84.9 141.37,-146.1 28.65,-54.7 42.25,-117.37 33.62,-178.89l-1.01 -7.23 -6.28 -3.71c-54.83,-32.38 -110.51,-60.27 -172.17,-77.13 -69.79,-19.09 -143.35,-23.13 -215.34,-25.52l-28.65 -0.95 43.86 69.11z"></path> <path class="fil2" d="M44.7 51.99l31.05 48.94c-4.08,78.69 22.13,273.53 181.6,361.45 122.47,-71.92 183.31,-198.31 167.67,-309.83 -135.84,-80.23 -214.33,-95.04 -380.32,-100.56z"></path> <path class="fil3" d="M126.24 325.41c2.01,3.84 4.09,7.67 6.25,11.47l52.64 14.05c-7.79,-10.56 -14.92,-21.65 -21.42,-33.19l-41.99 -10.58 4.52 18.25z"></path> <path class="fil3" d="M75.73 132.78c3.85,90.75 40.71,251.91 181.62,329.6l2.15 -20.84c-119.71,-70.31 -173.24,-208.36 -183.77,-308.76z"></path> <path class="fil3" d="M388.65 330.27c24.93,-44.53 38.2,-92.7 38.76,-139.68l-71.53 -64.67c-137.55,-52.78 -266.78,-55.63 -266.78,-55.63l23.79 21.48c98.36,7.76 183.29,30.24 277.58,83.13 2.6,45.14 -8.99,90.46 -29.93,130.43 -24.23,46.26 -60.51,85.02 -103.62,114.08l2.58 22.13c62.75,-43.48 81.04,-74.03 81.04,-74.03l48.11 -37.24z"></path> <path class="fil1" d="M112.89 91.77c98.36,7.76 183.29,30.24 277.58,83.13 2.6,45.14 -8.99,90.46 -29.93,130.43 -24.23,46.26 -60.51,85.02 -103.62,114.08 -55.83,-36.67 -93.89,-91.1 -117.4,-154.03 -18.15,-48.58 -29.91,-110.42 -27.2,-162.56l0.57 -11.05z"></path> <path class="fil3" d="M102.44 116.94c-0.13,2.75 -0.29,8.02 -0.14,15.33l-12.97 0c-0.12,-5.08 -0.09,-10.19 0.08,-15.33l13.03 0zm0.58 31.1c0.8,11.57 2.35,25.65 5.25,41.4l-11.78 0c-3,-13.33 -5.2,-27.19 -6.34,-41.4l12.87 0zm8.51 57.17c3.21,14 7.49,28.98 13.21,44.46l-8.21 0c-6.1,-13.68 -11.61,-28.61 -16.06,-44.46l11.06 0zm19.47 60.23c6.83,16.04 15.27,32.41 25.67,48.62 -10.62,-11.68 -22.12,-28.36 -32.57,-48.62l6.9 0z"></path> <g> <path class="fil1" d="M356.82 95.85c-42.83,-29.95 -64.1,-25.58 -78.91,-60.08 -16.59,19.97 -24.74,33.11 -21.79,60.41 -7.58,1.3 -15.55,2.08 -22.64,2.45 -34.99,1.78 -50.52,-4.41 -77.53,-18.54 0.37,16.5 1.78,28.51 10.73,46.59 -3.62,1.81 -7.09,3.78 -10.12,5.62 -11.37,6.92 -21.85,15.37 -31.35,24.79 3.93,36.03 12.89,72.8 24.7,104.41 21.61,57.84 56.12,108.97 106.95,144.47 1.03,0.99 1.92,1.96 2.86,2.94 1.61,-6.24 3.59,-12.56 5.59,-18.54 5.36,-16.01 12.11,-32.18 20.71,-46.74 4,7.27 6.43,13.44 13.17,18.69l-10.33 7.16c12,8.07 28.44,13.69 43.4,13.39 11.81,-0.24 22.67,-4.39 32,-11.29 2.49,0.1 5.01,-0.02 7.25,-0.32 25.26,-3.33 39.04,-28.9 33.09,-53 -4.77,-2.13 -9.42,-2.8 -14.32,-3.07 -0.83,-5.55 -2.6,-8.5 -5.14,-13.22 15.62,1.58 24.27,3.65 39.23,-4.71 2.29,0.59 4.68,0.88 7.04,0.86l1.06 8.27c10.98,2.44 30.74,2.97 39.3,-13.32l2.68 -1.07 0.92 -0.59c5.39,-3.46 10.84,-9.48 14.45,-14.65 8.98,-12.86 12.84,-28.36 12.34,-43.94l-0.19 -5.97 -46.46 -30.15c0.41,-1.93 0.7,-3.85 0.85,-5.65 1.03,-11.87 -3.09,-22.72 -12.5,-30.29 -32.12,-25.81 -52.77,-50.91 -70.38,-87.54 -7.01,6.11 -13.38,14.13 -16.66,22.63z"></path> <path class="fil0" d="M400.67 292.05c8.37,0.84 17.22,-4.83 21.74,-11.78 1.92,-2.95 1.93,-4.94 -2.05,-6.84 -2.9,-1.38 -6.26,-3.15 -6.95,-5.61 0,0 -4.33,1.33 -4.9,6.67 -1.08,10.01 -3.17,13.46 -7.84,17.56z"></path> <path class="fil4" d="M422.21 274.53c-0.48,-0.37 -1.1,-0.74 -1.85,-1.1 -2.9,-1.38 -6.26,-3.15 -6.95,-5.61 0,0 -4.33,1.33 -4.9,6.67 -1.08,10.01 -3.17,13.46 -7.84,17.56 0,0 11.11,-3.37 16.13,-12.58 0,0 -0.76,4.03 -3.61,6.86 0,0 6.72,-5.03 9.02,-11.8z"></path> <path class="fil4" d="M423.55 284.62c0.88,0.54 3.52,1.95 7.08,2.09 0.23,0 3.89,-0.08 5.38,-1.87 1.74,2.7 4.15,2.87 7.04,3.78l0 0c0,0 3.07,-1.63 3.22,-4.48 0,0 -3.78,-3.62 -8.55,-3.49 0,0 -4.35,-3.34 -8.58,-2.45 -3.16,0.66 -4.91,4.5 -5.59,6.42z"></path> <path class="fil0" d="M424.84 285.3c1.3,0.6 3.32,1.31 5.79,1.41 0.23,0 3.89,-0.08 5.38,-1.87 1.74,2.7 4.15,2.87 7.04,3.78l0 0c0.01,-0.01 0.81,-4.03 -1.5,-5.04 -2.31,-1.01 -4.95,0.11 -4.95,0.11 -3.17,-4.17 -9.19,-1.66 -11.76,1.61z"></path> <path class="fil0" d="M444.23 296.36c3.24,0.12 10.87,-0.25 15.56,-5.74 -0.03,-0.04 -3.37,-4.69 -9.85,-5.52 0,0 -5.08,4.86 -5.71,11.26z"></path> <path class="fil4" d="M457.11 288.03c-1.64,-1.24 -4.04,-2.53 -7.17,-2.93 0,0 -5.08,4.86 -5.71,11.26 0,0 6.03,-2.62 9.11,-6.21 0,0 -1.03,2.55 -2.62,3.96 0,0 4.31,-1.96 6.39,-6.08z"></path> <path class="fil0" d="M389.74 346.46c3.09,-5.31 4.71,-11.63 4.34,-18 -0.12,0.01 -10.23,0.84 -16.31,10.4 0,0 1.24,6.06 11.97,7.6z"></path> <path class="fil4" d="M394.08 328.46c-0.12,0.01 -10.23,0.84 -16.31,10.4 0,0 1,4.87 8.95,6.99 3.88,-4.09 5.38,-11.42 5.38,-11.42 -2.07,2.57 -5.77,5.15 -5.77,5.15 2.99,-3.96 7.75,-11.12 7.75,-11.12z"></path> <path class="fil5" d="M469.22 281.78c7.88,-5.68 12.92,-14.33 16.26,-23.01 -20.76,-6.44 -24.61,-18.89 -24.61,-18.89 1.72,-9.62 7.08,-16.78 9.69,-19.79l-28.61 -18.57c-18.89,-7.82 -24.93,-3.73 -45.41,-6.9 -20.48,-3.18 -26.42,-18.64 -26.42,-18.64 7.27,4.74 15.1,2.21 15.1,2.21 -8.79,-8.11 -9.94,-19.57 -9.94,-19.57 -3.78,-4.64 -12.57,-7.45 -12.57,-7.45 34.98,-8.19 52.98,26.97 66.09,34.47 15.27,8.73 20.85,-5.56 7.9,-15.97 -15,-12.06 -52.1,-46.94 -65.91,-75.66 0,0 -7.36,8.65 -6.62,29.27 -8.47,-32.45 -63.27,-32.57 -87.36,-68.3 0,0 -15.28,18.41 -7.55,50.07 0,0 4.39,-15.24 10.37,-25.08 22.42,18.5 53.42,23.22 56.15,57.25 0,0 -17.67,-16.29 -36.17,-19.05 0,0 -33.81,11.59 -57.44,-8.74 -21.04,1.93 -50.45,1.34 -73.8,-11.74 0,0 5.53,23.01 15.1,34.43 0,0 -27.11,7.6 -56.41,39.54 3.17,21.85 8.08,43.68 14.23,64.18 17.8,-30.41 43.62,-42.84 43.62,-42.84 -5.07,15.56 2.48,28.91 2.48,28.91 12.8,-33.05 53.76,-44.55 53.76,-44.55 -8.01,-22.65 0.19,-41.89 0.19,-41.89 23.56,15.1 65.72,16.11 65.72,16.11 -29.83,14.54 -55.69,3.96 -55.69,3.96 0.92,19.15 13.9,28.53 13.9,28.53 -48.88,13.54 -65.17,53.3 -65.17,53.3 25.22,-11.14 50.44,-5.06 50.44,-5.06 -15.83,27.98 -8.65,60.57 -8.65,60.57 10.49,-34.7 42.89,-47.04 42.89,-47.04 -5.52,16.57 4.33,36.64 4.33,36.64 6.44,-19.42 19.42,-26.97 19.42,-26.97 -7.91,52.47 19.79,86.16 19.79,86.16 -7.98,11.84 -20.61,12.63 -20.69,12.63 4.37,2.92 11.52,5.74 22.57,5.18 0,0 0,7.27 -11.32,9.94 0,0 17.94,7.35 37.35,-6.15 -7.91,-5.1 -8.3,-11.06 -8.3,-11.06 9.54,7.57 23.34,7.84 23.43,7.84 5.1,-0.93 9.64,-3.47 13.3,-7.03 -25.02,-1.73 -45.34,-22.72 -45.34,-22.72 -40.78,-51.92 -9.66,-91.96 -9.66,-91.96 -9.21,-4.51 -19.79,-5.52 -19.79,-5.52 29.64,-22.65 78.98,0.73 108.06,25.13 10.81,9.06 34.76,23.23 47.44,15.87 0.37,3.67 2.74,7.49 3.85,7.96z"></path> <path class="fil4" d="M466.9 224.99c1.38,-2.14 2.7,-3.8 3.66,-4.9l-28.61 -18.57c-7.87,-3.26 -13.51,-4.45 -18.9,-4.96l43.85 28.43z"></path> <path class="fil6" d="M375.8 178.38c5.16,1.18 9.42,-0.19 9.42,-0.19 -8.79,-8.11 -9.94,-19.57 -9.94,-19.57 -1.86,-2.29 -4.94,-4.13 -7.58,-5.41 -0.25,3.99 -0.34,17.13 8.1,25.17z"></path> <path class="fil6" d="M141.29 235.84c17.8,-30.41 43.62,-42.84 43.62,-42.84 -5.07,15.56 2.48,28.91 2.48,28.91 12.8,-33.05 53.76,-44.55 53.76,-44.55 -4.45,-12.59 -3.9,-24.12 -2.53,-31.88 -12.53,2.45 -59.31,12.68 -83.1,32.73 0,0 15.38,-2.94 29.74,-4.32 0,0 -26.01,9.15 -51.62,32.96 2.26,9.86 4.82,19.56 7.65,28.99z"></path> <path class="fil6" d="M168.37 97.69c0,0 5.53,23.01 15.1,34.43 20.17,5.17 38.33,2.46 38.33,2.46 -36.55,-7.92 -53.43,-36.89 -53.43,-36.89z"></path> <path class="fil4" d="M263.83 120.04c-7.37,-1.62 -14.93,-4.82 -21.66,-10.61 -21.04,1.93 -50.45,1.34 -73.8,-11.74 0,0 20.01,17.7 54.3,18.34 0,0 -14.65,3.5 -29.85,0.85 21.29,9.35 47.69,7.98 71.01,3.16z"></path> <path class="fil4" d="M364.17 123.28c-8.47,-32.45 -63.27,-32.57 -87.36,-68.3l2.61 11.53c22.44,23.2 67.47,30.12 84.75,56.77z"></path> <path class="fil6" d="M335.78 137.22l7.02 5.97c0,0 6.07,-24.86 -16.48,-40.14 -21.04,-14.25 -38.35,-20.54 -48.13,-27.6 -3.91,-13.7 -1.38,-20.47 -1.38,-20.47 0,0 -15.28,18.41 -7.55,50.07 0.38,-1.3 4.67,-15.72 10.37,-25.08 22.42,18.5 53.42,23.22 56.15,57.25z"></path> <path class="fil6" d="M370.79 94.01c0,0 -7.36,8.65 -6.62,29.27 2.13,4.67 10.75,7.02 10.75,7.02 -8.84,-18 -4.13,-36.29 -4.13,-36.29z"></path> <path class="fil4" d="M439.86 172.67c-0.9,-1.02 -1.95,-2.02 -3.16,-3 -15,-12.06 -52.1,-46.94 -65.91,-75.66 0.3,10.56 8.09,26.16 8.09,26.16 15.64,14.26 60.95,52.48 60.98,52.5z"></path> <path class="fil6" d="M362.71 151.17c34.98,-8.19 52.98,26.97 66.09,34.47 1.26,0.72 2.45,1.28 3.58,1.7 -24.15,-19.81 -31.63,-64.74 -73.48,-48.02 0,0 4.05,-0.28 9.99,4.32 0,0 -3.47,2.76 -6.18,7.53z"></path> <path class="fil4" d="M307.06 151.58c-29.83,14.54 -55.69,3.96 -55.69,3.96 0,0 16.17,12.5 44.93,11.25 0,0 8.4,-7.78 10.76,-15.21z"></path> <path class="fil6" d="M251.37 155.54c0.92,19.15 13.9,28.53 13.9,28.53 19.92,2.37 37.47,-6.28 37.47,-6.28 -38.84,-1.65 -51.37,-22.25 -51.37,-22.25z"></path> <path class="fil4" d="M183.47 132.12c0,0 -27.11,7.6 -56.41,39.54 0.71,4.9 1.51,9.8 2.39,14.68 16.78,-17.53 44.94,-41.31 77.93,-46.47 0,0 -10.44,0.33 -23.91,-7.75z"></path> <path class="fil4" d="M265.27 184.07c-48.88,13.54 -65.17,53.3 -65.17,53.3 0,0 33.23,-44.25 89.1,-45.9 0,0 -13.62,-1.3 -23.93,-7.4z"></path> <path class="fil0" d="M469.22 281.78c7.88,-5.68 12.92,-14.33 16.26,-23.01 -20.76,-6.44 -24.61,-18.89 -24.61,-18.89 0.29,-1.64 0.69,-3.21 1.17,-4.7l0 0c0,0 -24.73,-1.83 -50.97,-19.14 0,0 12.71,1.57 22.37,2.58 0,0 -17.62,-10.42 -29.01,-23.04 -2.39,-0.21 -5,-0.52 -7.89,-0.96 -13.14,-2.04 -20.3,-9.14 -23.74,-13.97 -7.48,-1.73 -26.11,-4.98 -42.92,0.6 0,0 15.1,4.97 27.07,15.09 0,0 -39.22,-9.66 -68.03,13.07 0,0 11.88,-1.15 20.44,5.07 0,0 -43.11,3.99 -64.11,29.51 -8.71,24.63 -3.36,48.89 -3.36,48.89 10.49,-34.7 42.89,-47.04 42.89,-47.04 -5.52,16.57 4.33,36.64 4.33,36.64 6.44,-19.42 19.42,-26.97 19.42,-26.97 -7.91,52.47 19.79,86.16 19.79,86.16 -7.98,11.84 -20.61,12.63 -20.69,12.63 4.37,2.92 11.52,5.74 22.57,5.18 0,0 0,7.27 -11.32,9.94 0,0 17.94,7.35 37.35,-6.15 -7.91,-5.1 -8.3,-11.06 -8.3,-11.06 9.54,7.57 23.34,7.84 23.43,7.84 5.1,-0.93 9.64,-3.47 13.3,-7.03 -25.02,-1.73 -45.34,-22.72 -45.34,-22.72 -40.78,-51.92 -9.66,-91.96 -9.66,-91.96 -9.21,-4.51 -19.79,-5.52 -19.79,-5.52 29.64,-22.65 78.98,0.73 108.06,25.13 10.81,9.06 34.76,23.23 47.44,15.87 0.37,3.67 2.74,7.49 3.85,7.96z"></path> <path class="fil4" d="M241.89 292.88c10.49,-34.7 42.89,-47.04 42.89,-47.04 0,0 -14.94,-2.45 -31,3.55 -11.47,18.26 -11.89,43.49 -11.89,43.49z"></path> <path class="fil4" d="M283.14 255.27c-0.57,13.89 5.97,27.21 5.97,27.21 6.44,-19.42 19.42,-26.97 19.42,-26.97 -7.91,52.47 19.79,86.16 19.79,86.16 -7.98,11.84 -20.61,12.63 -20.69,12.63 0,0 18.07,5.53 33.63,-14.45 0,0 -17.63,-17.5 -18.99,-40.22 -12.1,-36.2 7.39,-61.29 7.39,-61.29 -9.21,-4.51 -19.79,-5.52 -19.79,-5.52 29.64,-22.65 78.98,0.73 108.06,25.13 10.81,9.06 34.76,23.23 47.44,15.87 0,0 4.16,-2.13 5.82,-5.72 0,0 -18.64,2.07 -43.22,-14.96 -24.58,-17.03 -61.51,-49.44 -96.01,-45.75 0,0 5.89,4.33 9.94,7.09 0,0 -29.18,-1.75 -54.77,18.13 0,0 8.01,0.28 12.89,0.65 0,0 -10,5.96 -16.88,22.01z"></path> <path class="fil0" d="M243.88 374.03c0,0 -0.09,-35.44 17.86,-61.4 0,0 -18.88,2.3 -32.04,22.55 -0.33,12.8 5.49,29.38 14.18,38.85z"></path> <path class="fil4" d="M243.88 374.03c0,0 -0.09,-35.44 17.86,-61.4 0,0 -13.84,7.1 -22.88,20.61 -0.26,24.05 5.02,40.79 5.02,40.79z"></path> <path class="fil0" d="M183.18 328.57c-0.05,-6.49 0.25,-13.35 1.08,-20.29 -3.14,2.63 -6.07,5.54 -8.5,8.17 -1.33,-2.28 -2.63,-4.58 -3.91,-6.9 6.56,-20.38 20.66,-32.36 20.66,-32.36 0,0 8.75,27.89 18.97,41.33 -6.74,9.01 -12.19,17.67 -16.34,27.28 -4.18,-5.6 -8.16,-11.34 -11.96,-17.23z"></path> <path class="fil4" d="M183.18 328.57c-0.05,-6.49 0.25,-13.35 1.08,-20.29 0,0 7.7,-8 14.85,-13.14 3.31,7.93 7.85,17.43 12.37,23.38 -6.74,9.01 -12.19,17.67 -16.34,27.28 -4.18,-5.6 -8.16,-11.34 -11.96,-17.23z"></path> <path class="fil4" d="M361.2 306.46c-1.4,-7.77 5.46,-22.75 0.32,-29.82 0,0 -1.75,7.82 -5.66,13.57 -2.82,-7.76 -2.22,-25.2 -9.39,-29.41 -13.8,17.44 -15.51,58.01 14.73,45.66z"></path> <path class="fil0" d="M361.2 306.46c-0.52,-2.87 0.09,-6.73 0.81,-10.82 -0.4,-1.75 -1.14,-3.49 -2.54,-3.56 -2.85,-0.13 -4.01,5.83 -6.88,5.32 -2.88,-0.51 -3.36,-9.69 -8.61,-9.64 -3.18,0.02 -4.95,6.93 -4.73,13.56 3.26,6.74 10.18,9.95 21.95,5.14z"></path> <path class="fil0" d="M370.04 336.56c0,0 4.88,-8.01 3.82,-19.1 0,0 -12.89,-0.37 -22.19,7.41 5.53,6.05 11.55,9.36 18.37,11.69z"></path> <path class="fil4" d="M373.86 317.46c0,0 -12.89,-0.37 -22.19,7.41 3.46,3.78 7.11,6.5 11.03,8.57 5.78,-3.07 8.32,-9.28 8.32,-9.28 -3.43,3.22 -6.6,3.32 -6.6,3.32 4.67,-2.86 9.44,-10.02 9.44,-10.02z"></path> <path class="fil4" d="M404.48 264.64c0,0 -21.89,-15.73 -39.9,-22.18 -3.25,-1.16 -6.29,0.8 -4.91,3.56 1.38,2.77 5.92,2.77 7.76,6.63 1.84,3.87 4.19,11.07 7.62,12.22 3.43,1.15 9.75,-3.91 9.75,-3.91 0.82,4.73 4.13,9.19 8.91,5.22 0,0 3.94,2.97 5.8,3.39 1.86,0.41 4.14,-1.29 4.97,-4.93z"></path> <path class="fil0" d="M404.48 264.64c0,0 -5.54,-3.98 -13.33,-8.75 0,0.01 1.11,1.88 -0.17,3.01 -0.93,0.81 -3.31,0.54 -5.2,-0.38 -1.85,-0.9 -5.21,-4.4 -8.8,-4.94 -3.59,-0.54 -8.09,2.91 -6.13,6.6 1.2,2.26 2.58,4.15 4.2,4.69 3.43,1.15 9.75,-3.91 9.75,-3.91 0.82,4.73 4.13,9.19 8.91,5.22 0,0 3.94,2.97 5.8,3.39 1.86,0.41 4.14,-1.29 4.97,-4.93z"></path> <path class="fil2" d="M392.79 162.98c-6.33,13.68 8.04,16.14 18.45,18.27l-18.45 -18.27z"></path> <path class="fil6" d="M487.89 247.42c0,0 2.67,-8.89 0.76,-16.55l-9.92 -5.89c0,0 -2.12,14.78 9.16,22.44z"></path> </g> </g> <rect class="fil7" width="511.12" height="511.12"></rect> </g> </svg>